<svg xmlns="http://www.w3.org/2000/svg" xmlns:xlink="http://www.w3.org/1999/xlink" width="1000" zoomAndPan="magnify" viewBox="0 0 750 749.999995" height="1000" preserveAspectRatio="xMidYMid meet" version="1.0"><defs><clipPath id="816267e5d5"><path d="M 204.167969 137.210938 L 375 137.210938 L 375 441.039062 L 204.167969 441.039062 Z M 204.167969 137.210938 " clip-rule="nonzero"/></clipPath><clipPath id="3cfa7ccab1"><path d="M 375 272.1875 L 375 241.300781 L 204.167969 241.300781 L 204.167969 337.445312 L 375 337.445312 Z M 204.167969 337.445312 L 375 441.039062 L 375 337.445312 Z M 204.167969 137.707031 L 375 137.707031 L 375 241.300781 L 204.167969 241.300781 Z M 204.167969 137.707031 " clip-rule="nonzero"/></clipPath><clipPath id="a6f82961f3"><path d="M 375 137.210938 L 546 137.210938 L 546 441.039062 L 375 441.039062 Z M 375 137.210938 " clip-rule="nonzero"/></clipPath><clipPath id="6222d2059b"><path d="M 375 241.300781 L 375 337.445312 L 545.832031 337.445312 L 545.832031 241.300781 Z M 375 137.707031 L 545.832031 137.707031 L 545.832031 241.300781 L 375 241.300781 Z M 375 441.039062 L 545.832031 337.445312 L 375 337.445312 Z M 375 441.039062 " clip-rule="nonzero"/></clipPath><clipPath id="0a96546cf8"><path d="M 204.167969 34.113281 L 546 34.113281 L 546 241.671875 L 204.167969 241.671875 Z M 204.167969 34.113281 " clip-rule="nonzero"/></clipPath><clipPath id="eb74918a31"><path d="M 375 241.300781 L 204.167969 137.707031 L 375 34.113281 L 545.832031 137.707031 Z M 375 241.300781 " clip-rule="nonzero"/></clipPath><clipPath id="b3d28b5b6f"><path d="M 375 412.058594 L 546 412.058594 L 546 715.886719 L 375 715.886719 Z M 375 412.058594 " clip-rule="nonzero"/></clipPath><clipPath id="dbe7511e7f"><path d="M 545.832031 547.035156 L 545.832031 516.148438 L 375 516.148438 L 375 612.292969 L 545.832031 612.292969 Z M 375 612.292969 L 545.832031 715.886719 L 545.832031 612.292969 Z M 375 412.554688 L 545.832031 412.554688 L 545.832031 516.148438 L 375 516.148438 Z M 375 412.554688 " clip-rule="nonzero"/></clipPath><clipPath id="69657243eb"><path d="M 545.691406 412.058594 L 717 412.058594 L 717 715.886719 L 545.691406 715.886719 Z M 545.691406 412.058594 " clip-rule="nonzero"/></clipPath><clipPath id="9d19d5c847"><path d="M 545.832031 516.148438 L 545.832031 612.292969 L 716.667969 612.292969 L 716.667969 516.148438 Z M 545.832031 412.554688 L 716.667969 412.554688 L 716.667969 516.148438 L 545.832031 516.148438 Z M 545.832031 715.886719 L 716.667969 612.292969 L 545.832031 612.292969 Z M 545.832031 715.886719 " clip-rule="nonzero"/></clipPath><clipPath id="bfbbbf6c9f"><path d="M 375 308.960938 L 717 308.960938 L 717 516.519531 L 375 516.519531 Z M 375 308.960938 " clip-rule="nonzero"/></clipPath><clipPath id="7c1db7ac19"><path d="M 545.832031 516.148438 L 375 412.554688 L 545.832031 308.960938 L 716.667969 412.554688 Z M 545.832031 516.148438 " clip-rule="nonzero"/></clipPath><clipPath id="331866dfc6"><path d="M 33.332031 412.058594 L 204.707031 412.058594 L 204.707031 715.886719 L 33.332031 715.886719 Z M 33.332031 412.058594 " clip-rule="nonzero"/></clipPath><clipPath id="9b8a526c15"><path d="M 204.167969 547.035156 L 204.167969 516.148438 L 33.332031 516.148438 L 33.332031 612.292969 L 204.167969 612.292969 Z M 33.332031 612.292969 L 204.167969 715.886719 L 204.167969 612.292969 Z M 33.332031 412.554688 L 204.167969 412.554688 L 204.167969 516.148438 L 33.332031 516.148438 Z M 33.332031 412.554688 " clip-rule="nonzero"/></clipPath><clipPath id="77d52f4d70"><path d="M 204.023438 412.058594 L 375 412.058594 L 375 715.886719 L 204.023438 715.886719 Z M 204.023438 412.058594 " clip-rule="nonzero"/></clipPath><clipPath id="1078339275"><path d="M 204.167969 516.148438 L 204.167969 612.292969 L 375 612.292969 L 375 516.148438 Z M 204.167969 412.554688 L 375 412.554688 L 375 516.148438 L 204.167969 516.148438 Z M 204.167969 715.886719 L 375 612.292969 L 204.167969 612.292969 Z M 204.167969 715.886719 " clip-rule="nonzero"/></clipPath><clipPath id="7779a05e5e"><path d="M 33.332031 308.960938 L 375 308.960938 L 375 516.519531 L 33.332031 516.519531 Z M 33.332031 308.960938 " clip-rule="nonzero"/></clipPath><clipPath id="d4ee66e80e"><path d="M 204.167969 516.148438 L 33.332031 412.554688 L 204.167969 308.960938 L 375 412.554688 Z M 204.167969 516.148438 " clip-rule="nonzero"/></clipPath></defs><g clip-path="url(#816267e5d5)"><g clip-path="url(#3cfa7ccab1)"><path fill="#6f3284" d="M 204.167969 34.113281 L 545.546875 34.113281 L 545.546875 441.039062 L 204.167969 441.039062 Z M 204.167969 34.113281 " fill-opacity="1" fill-rule="nonzero"/></g></g><g clip-path="url(#a6f82961f3)"><g clip-path="url(#6222d2059b)"><path fill="#af47ab" d="M 204.167969 34.113281 L 545.546875 34.113281 L 545.546875 441.039062 L 204.167969 441.039062 Z M 204.167969 34.113281 " fill-opacity="1" fill-rule="nonzero"/></g></g><g clip-path="url(#0a96546cf8)"><g clip-path="url(#eb74918a31)"><path fill="#f487d2" d="M 204.167969 34.113281 L 545.546875 34.113281 L 545.546875 441.039062 L 204.167969 441.039062 Z M 204.167969 34.113281 " fill-opacity="1" fill-rule="nonzero"/></g></g><g clip-path="url(#b3d28b5b6f)"><g clip-path="url(#dbe7511e7f)"><path fill="#af47ab" d="M 375 308.960938 L 716.378906 308.960938 L 716.378906 715.886719 L 375 715.886719 Z M 375 308.960938 " fill-opacity="1" fill-rule="nonzero"/></g></g><g clip-path="url(#69657243eb)"><g clip-path="url(#9d19d5c847)"><path fill="#af47ab" d="M 375 308.960938 L 716.378906 308.960938 L 716.378906 715.886719 L 375 715.886719 Z M 375 308.960938 " fill-opacity="1" fill-rule="nonzero"/></g></g><g clip-path="url(#bfbbbf6c9f)"><g clip-path="url(#7c1db7ac19)"><path fill="#f487d2" d="M 375 308.960938 L 716.378906 308.960938 L 716.378906 715.886719 L 375 715.886719 Z M 375 308.960938 " fill-opacity="1" fill-rule="nonzero"/></g></g><g clip-path="url(#331866dfc6)"><g clip-path="url(#9b8a526c15)"><path fill="#6f3284" d="M 33.332031 308.960938 L 374.714844 308.960938 L 374.714844 715.886719 L 33.332031 715.886719 Z M 33.332031 308.960938 " fill-opacity="1" fill-rule="nonzero"/></g></g><g clip-path="url(#77d52f4d70)"><g clip-path="url(#1078339275)"><path fill="#af47ab" d="M 33.332031 308.960938 L 374.714844 308.960938 L 374.714844 715.886719 L 33.332031 715.886719 Z M 33.332031 308.960938 " fill-opacity="1" fill-rule="nonzero"/></g></g><g clip-path="url(#7779a05e5e)"><g clip-path="url(#d4ee66e80e)"><path fill="#f487d2" d="M 33.332031 308.960938 L 374.714844 308.960938 L 374.714844 715.886719 L 33.332031 715.886719 Z M 33.332031 308.960938 " fill-opacity="1" fill-rule="nonzero"/></g></g></svg>