<svg xmlns="http://www.w3.org/2000/svg" xmlns:xlink="http://www.w3.org/1999/xlink" width="1000" zoomAndPan="magnify" viewBox="0 0 750 749.999995" height="1000" preserveAspectRatio="xMidYMid meet" version="1.0"><defs><clipPath id="1c59b36c4d"><path d="M 204.167969 137.210938 L 375 137.210938 L 375 441.039062 L 204.167969 441.039062 Z M 204.167969 137.210938 " clip-rule="nonzero"/></clipPath><clipPath id="54cec4f33c"><path d="M 375 272.1875 L 375 241.300781 L 204.167969 241.300781 L 204.167969 337.445312 L 375 337.445312 Z M 204.167969 337.445312 L 375 441.039062 L 375 337.445312 Z M 204.167969 137.707031 L 375 137.707031 L 375 241.300781 L 204.167969 241.300781 Z M 204.167969 137.707031 " clip-rule="nonzero"/></clipPath><clipPath id="0d101f56ba"><path d="M 375 137.210938 L 546 137.210938 L 546 441.039062 L 375 441.039062 Z M 375 137.210938 " clip-rule="nonzero"/></clipPath><clipPath id="0e0158d9a0"><path d="M 375 241.300781 L 375 337.445312 L 545.832031 337.445312 L 545.832031 241.300781 Z M 375 137.707031 L 545.832031 137.707031 L 545.832031 241.300781 L 375 241.300781 Z M 375 441.039062 L 545.832031 337.445312 L 375 337.445312 Z M 375 441.039062 " clip-rule="nonzero"/></clipPath><clipPath id="b7b4f3b05d"><path d="M 204.167969 34.113281 L 546 34.113281 L 546 241.671875 L 204.167969 241.671875 Z M 204.167969 34.113281 " clip-rule="nonzero"/></clipPath><clipPath id="d8005fd118"><path d="M 375 241.300781 L 204.167969 137.707031 L 375 34.113281 L 545.832031 137.707031 Z M 375 241.300781 " clip-rule="nonzero"/></clipPath><clipPath id="a0c0b4e086"><path d="M 375 412.058594 L 546 412.058594 L 546 715.886719 L 375 715.886719 Z M 375 412.058594 " clip-rule="nonzero"/></clipPath><clipPath id="8315b81807"><path d="M 545.832031 547.035156 L 545.832031 516.148438 L 375 516.148438 L 375 612.292969 L 545.832031 612.292969 Z M 375 612.292969 L 545.832031 715.886719 L 545.832031 612.292969 Z M 375 412.554688 L 545.832031 412.554688 L 545.832031 516.148438 L 375 516.148438 Z M 375 412.554688 " clip-rule="nonzero"/></clipPath><clipPath id="90b5ddbbd3"><path d="M 545.691406 412.058594 L 717 412.058594 L 717 715.886719 L 545.691406 715.886719 Z M 545.691406 412.058594 " clip-rule="nonzero"/></clipPath><clipPath id="ed970ab562"><path d="M 545.832031 516.148438 L 545.832031 612.292969 L 716.667969 612.292969 L 716.667969 516.148438 Z M 545.832031 412.554688 L 716.667969 412.554688 L 716.667969 516.148438 L 545.832031 516.148438 Z M 545.832031 715.886719 L 716.667969 612.292969 L 545.832031 612.292969 Z M 545.832031 715.886719 " clip-rule="nonzero"/></clipPath><clipPath id="7ffb26a94a"><path d="M 375 308.960938 L 717 308.960938 L 717 516.519531 L 375 516.519531 Z M 375 308.960938 " clip-rule="nonzero"/></clipPath><clipPath id="b3099519c1"><path d="M 545.832031 516.148438 L 375 412.554688 L 545.832031 308.960938 L 716.667969 412.554688 Z M 545.832031 516.148438 " clip-rule="nonzero"/></clipPath><clipPath id="15dbdea75d"><path d="M 33.332031 412.058594 L 204.707031 412.058594 L 204.707031 715.886719 L 33.332031 715.886719 Z M 33.332031 412.058594 " clip-rule="nonzero"/></clipPath><clipPath id="68c85b2a4a"><path d="M 204.167969 547.035156 L 204.167969 516.148438 L 33.332031 516.148438 L 33.332031 612.292969 L 204.167969 612.292969 Z M 33.332031 612.292969 L 204.167969 715.886719 L 204.167969 612.292969 Z M 33.332031 412.554688 L 204.167969 412.554688 L 204.167969 516.148438 L 33.332031 516.148438 Z M 33.332031 412.554688 " clip-rule="nonzero"/></clipPath><clipPath id="5b87da257b"><path d="M 204.023438 412.058594 L 375 412.058594 L 375 715.886719 L 204.023438 715.886719 Z M 204.023438 412.058594 " clip-rule="nonzero"/></clipPath><clipPath id="0fdcc0af74"><path d="M 204.167969 516.148438 L 204.167969 612.292969 L 375 612.292969 L 375 516.148438 Z M 204.167969 412.554688 L 375 412.554688 L 375 516.148438 L 204.167969 516.148438 Z M 204.167969 715.886719 L 375 612.292969 L 204.167969 612.292969 Z M 204.167969 715.886719 " clip-rule="nonzero"/></clipPath><clipPath id="dc4da3b453"><path d="M 33.332031 308.960938 L 375 308.960938 L 375 516.519531 L 33.332031 516.519531 Z M 33.332031 308.960938 " clip-rule="nonzero"/></clipPath><clipPath id="c17817a3d7"><path d="M 204.167969 516.148438 L 33.332031 412.554688 L 204.167969 308.960938 L 375 412.554688 Z M 204.167969 516.148438 " clip-rule="nonzero"/></clipPath></defs><g clip-path="url(#1c59b36c4d)"><g clip-path="url(#54cec4f33c)"><path fill="#6f3284" d="M 204.167969 34.113281 L 545.546875 34.113281 L 545.546875 441.039062 L 204.167969 441.039062 Z M 204.167969 34.113281 " fill-opacity="1" fill-rule="nonzero"/></g></g><g clip-path="url(#0d101f56ba)"><g clip-path="url(#0e0158d9a0)"><path fill="#af47ab" d="M 204.167969 34.113281 L 545.546875 34.113281 L 545.546875 441.039062 L 204.167969 441.039062 Z M 204.167969 34.113281 " fill-opacity="1" fill-rule="nonzero"/></g></g><g clip-path="url(#b7b4f3b05d)"><g clip-path="url(#d8005fd118)"><path fill="#f487d2" d="M 204.167969 34.113281 L 545.546875 34.113281 L 545.546875 441.039062 L 204.167969 441.039062 Z M 204.167969 34.113281 " fill-opacity="1" fill-rule="nonzero"/></g></g><g clip-path="url(#a0c0b4e086)"><g clip-path="url(#8315b81807)"><path fill="#af47ab" d="M 375 308.960938 L 716.378906 308.960938 L 716.378906 715.886719 L 375 715.886719 Z M 375 308.960938 " fill-opacity="1" fill-rule="nonzero"/></g></g><g clip-path="url(#90b5ddbbd3)"><g clip-path="url(#ed970ab562)"><path fill="#af47ab" d="M 375 308.960938 L 716.378906 308.960938 L 716.378906 715.886719 L 375 715.886719 Z M 375 308.960938 " fill-opacity="1" fill-rule="nonzero"/></g></g><g clip-path="url(#7ffb26a94a)"><g clip-path="url(#b3099519c1)"><path fill="#f487d2" d="M 375 308.960938 L 716.378906 308.960938 L 716.378906 715.886719 L 375 715.886719 Z M 375 308.960938 " fill-opacity="1" fill-rule="nonzero"/></g></g><g clip-path="url(#15dbdea75d)"><g clip-path="url(#68c85b2a4a)"><path fill="#6f3284" d="M 33.332031 308.960938 L 374.714844 308.960938 L 374.714844 715.886719 L 33.332031 715.886719 Z M 33.332031 308.960938 " fill-opacity="1" fill-rule="nonzero"/></g></g><g clip-path="url(#5b87da257b)"><g clip-path="url(#0fdcc0af74)"><path fill="#af47ab" d="M 33.332031 308.960938 L 374.714844 308.960938 L 374.714844 715.886719 L 33.332031 715.886719 Z M 33.332031 308.960938 " fill-opacity="1" fill-rule="nonzero"/></g></g><g clip-path="url(#dc4da3b453)"><g clip-path="url(#c17817a3d7)"><path fill="#f487d2" d="M 33.332031 308.960938 L 374.714844 308.960938 L 374.714844 715.886719 L 33.332031 715.886719 Z M 33.332031 308.960938 " fill-opacity="1" fill-rule="nonzero"/></g></g></svg>