<?xml version="1.0" encoding="UTF-8"?>
<svg version="1.1" xmlns="http://www.w3.org/2000/svg" width="816" height="101">
<path d="M0 0 C1.98280572 1.28607346 3.96194607 2.57781453 5.9375 3.875 C6.99324219 4.26300781 8.04898438 4.65101562 9.13671875 5.05078125 C12.8730895 6.59604085 14.58560551 7.53975078 16.9375 10.875 C18.31761026 18.42746993 17.60105054 26.27154607 16.9375 33.875 C18.0527002 34.29736938 18.0527002 34.29736938 19.19042969 34.72827148 C21.6094249 35.73804935 23.68052843 36.82920097 25.890625 38.22265625 C26.591875 38.66287109 27.293125 39.10308594 28.015625 39.55664062 C28.73234375 40.01232422 29.4490625 40.46800781 30.1875 40.9375 C30.9196875 41.39705078 31.651875 41.85660156 32.40625 42.33007812 C37.78277726 45.72027726 37.78277726 45.72027726 38.9375 46.875 C40.56907285 55.58742072 41.53701404 65.30879893 38.9375 73.875 C34.14985597 80.10423721 25.64318702 85.21414211 17.9375 86.875 C14.59442084 85.90646221 11.80659654 84.30053702 8.87109375 82.45703125 C8.13826172 82.00779297 7.40542969 81.55855469 6.65039062 81.09570312 C5.12538027 80.15189843 3.60456195 79.20128846 2.08789062 78.24414062 C1.35634766 77.79876953 0.62480469 77.35339844 -0.12890625 76.89453125 C-0.78834229 76.48307861 -1.44777832 76.07162598 -2.12719727 75.64770508 C-4.6025115 74.65939051 -5.59987886 74.91240415 -8.0625 75.875 C-9.47744249 76.68122581 -10.86053158 77.54484004 -12.21484375 78.44921875 C-12.99150391 78.95130859 -13.76816406 79.45339844 -14.56835938 79.97070312 C-16.1921195 81.0336465 -17.80934616 82.10663668 -19.41992188 83.18945312 C-20.19787109 83.68767578 -20.97582031 84.18589844 -21.77734375 84.69921875 C-22.47980225 85.16416748 -23.18226074 85.62911621 -23.90600586 86.1081543 C-26.0625 86.875 -26.0625 86.875 -28.5559082 86.17138672 C-30.91178473 84.95294858 -33.1943498 83.69851225 -35.453125 82.30859375 C-36.24460937 81.82326172 -37.03609375 81.33792969 -37.8515625 80.83789062 C-38.66367187 80.33451172 -39.47578125 79.83113281 -40.3125 79.3125 C-41.14007813 78.80525391 -41.96765625 78.29800781 -42.8203125 77.77539062 C-48.91198028 74.02551972 -48.91198028 74.02551972 -50.0625 72.875 C-51.6835889 64.55163862 -52.74774802 55.02585474 -50.0625 46.875 C-46.2955538 42.92585459 -41.51680741 40.99980108 -36.62719727 38.73876953 C-31.21603701 36.16644686 -31.21603701 36.16644686 -28.13085938 31.32714844 C-27.66802545 27.35516722 -27.81969861 23.54405204 -28.03076172 19.55932617 C-28.37340423 12.34814465 -28.37340423 12.34814465 -26.2734375 9.15234375 C-23.62022258 7.3493076 -21.00325357 6.14815493 -18.0625 4.875 C-16.62197266 3.81152344 -16.62197266 3.81152344 -15.15234375 2.7265625 C-9.61647445 -1.31411154 -6.4191829 -3.13070111 0 0 Z " fill="#A142A2" transform="translate(56.0625,9.125)"/>
<path d="M0 0 C0 3.63 0 7.26 0 11 C-3.3 11 -6.6 11 -10 11 C-10.33 13.31 -10.66 15.62 -11 18 C-7.37 18 -3.74 18 0 18 C0 21.3 0 24.6 0 28 C-3.63 28 -7.26 28 -11 28 C-11 38.56 -11 49.12 -11 60 C-14.96 60 -18.92 60 -23 60 C-23 49.44 -23 38.88 -23 28 C-25.97 28 -28.94 28 -32 28 C-32.495 25.03 -32.495 25.03 -33 22 C-33.229151 22.53791168 -33.458302 23.07582336 -33.69439697 23.6300354 C-36.08831147 29.2462308 -38.49069522 34.85874801 -40.89794922 40.46923828 C-41.79431762 42.56141199 -42.68854858 44.65450284 -43.58056641 46.74853516 C-44.86575615 49.76450441 -46.15868741 52.7770528 -47.453125 55.7890625 C-47.84808167 56.72054108 -48.24303833 57.65201965 -48.64996338 58.61172485 C-51.62055052 65.49290555 -54.46399187 71.8407221 -61 76 C-66.26471476 78.05479374 -70.51349658 78.14302155 -76 77 C-76 73.7 -76 70.4 -76 67 C-74.01432292 66.77213542 -72.02864583 66.54427083 -70.04296875 66.31640625 C-67.80603607 66.02829265 -67.80603607 66.02829265 -65 65 C-63.31975706 59.14761349 -64.98121452 55.34452008 -67.18359375 49.953125 C-67.51794937 49.10071228 -67.85230499 48.24829956 -68.1967926 47.37005615 C-69.26350639 44.65779115 -70.34965793 41.95385154 -71.4375 39.25 C-72.51786796 36.53047789 -73.59417753 33.80940893 -74.66749573 31.08709717 C-75.33583118 29.39571899 -76.00899004 27.70623741 -76.68736267 26.01885986 C-79 20.21864068 -79 20.21864068 -79 18 C-74.71 18 -70.42 18 -66 18 C-65.52949219 19.21816406 -65.05898437 20.43632813 -64.57421875 21.69140625 C-63.94537795 23.31512952 -63.31646802 24.93882601 -62.6875 26.5625 C-62.37876953 27.36236328 -62.07003906 28.16222656 -61.75195312 28.98632812 C-59.92413103 33.7001851 -58.02160472 38.36585994 -56 43 C-55.70230713 42.27820557 -55.40461426 41.55641113 -55.09790039 40.81274414 C-53.75533638 37.5615947 -52.4089713 34.31203306 -51.0625 31.0625 C-50.59392578 29.92619141 -50.12535156 28.78988281 -49.64257812 27.61914062 C-49.19462891 26.53955078 -48.74667969 25.45996094 -48.28515625 24.34765625 C-47.87144775 23.34742432 -47.45773926 22.34719238 -47.03149414 21.31665039 C-46 19 -46 19 -45 18 C-43.36527118 17.91299658 -41.72685945 17.89298937 -40.08984375 17.90234375 C-38.60581055 17.90717773 -38.60581055 17.90717773 -37.09179688 17.91210938 C-36.05087891 17.92048828 -35.00996094 17.92886719 -33.9375 17.9375 C-32.37032227 17.94426758 -32.37032227 17.94426758 -30.77148438 17.95117188 C-28.1809334 17.96300087 -25.59049441 17.97948311 -23 18 C-23.03351563 16.93265625 -23.06703125 15.8653125 -23.1015625 14.765625 C-22.97113602 9.92981238 -21.78678938 6.90326336 -19 3 C-13.6367131 -1.40064566 -6.57618307 -0.2634376 0 0 Z " fill="#FFFFFF" transform="translate(252,19)"/>
<path d="M0 0 C12 0 12 0 15.84765625 3.41015625 C16.95900215 4.93271679 18.02946247 6.4857585 19.0625 8.0625 C19.63758301 8.86929199 20.21266602 9.67608398 20.80517578 10.50732422 C21.985561 12.16794345 23.15002687 13.83999265 24.29833984 15.52294922 C26.38429385 18.55940393 28.56926434 21.51335106 30.77270508 24.46508789 C32.87093727 27.29352919 34.93193653 30.14942602 37 33 C37.33 22.11 37.66 11.22 38 0 C41.96 0 45.92 0 50 0 C50 18.48 50 36.96 50 56 C38 56 38 56 34.08203125 52.484375 C32.95263897 50.93430694 31.86377174 49.35407782 30.8125 47.75 C30.23008545 46.93257324 29.6476709 46.11514648 29.04760742 45.27294922 C27.88073354 43.6320681 26.72905466 41.98026249 25.59375 40.31738281 C23.43133078 37.17312986 21.12965417 34.15686081 18.8125 31.125 C17.54044494 29.41757619 16.26942493 27.70938015 15 26 C14.01 24.68 13.02 23.36 12 22 C11.67 33.22 11.34 44.44 11 56 C7.37 56 3.74 56 0 56 C0 37.52 0 19.04 0 0 Z " fill="#FFFFFF" transform="translate(485,24)"/>
<path d="M0 0 C3.63 0 7.26 0 11 0 C13.61844465 7.59348947 15.82363608 15.27015574 18 23 C20.31 15.41 22.62 7.82 25 0 C28.63 0 32.26 0 36 0 C38.31 7.59 40.62 15.18 43 23 C44.93326951 15.80580131 44.93326951 15.80580131 46.85913086 8.60961914 C47.22083374 7.27338501 47.22083374 7.27338501 47.58984375 5.91015625 C47.83597412 4.99371338 48.08210449 4.07727051 48.33569336 3.13305664 C49 1 49 1 50 0 C51.85287502 -0.07226502 53.70833878 -0.0838122 55.5625 -0.0625 C56.57441406 -0.05347656 57.58632813 -0.04445312 58.62890625 -0.03515625 C59.41136719 -0.02355469 60.19382812 -0.01195312 61 0 C57.86601365 14.15160295 53.97823027 28.06501925 50 42 C46.04 42 42.08 42 38 42 C35.29715374 35.10774203 33.12871018 28.08849683 31 21 C29.28299455 23.57550818 28.43002925 25.35577992 27.4921875 28.23046875 C27.22792969 29.03291016 26.96367188 29.83535156 26.69140625 30.66210938 C26.42199219 31.49548828 26.15257812 32.32886719 25.875 33.1875 C25.59785156 34.03248047 25.32070313 34.87746094 25.03515625 35.74804688 C24.35270396 37.830703 23.67581319 39.91518006 23 42 C19.04 42 15.08 42 11 42 C9.4284248 36.50214664 7.86197926 31.0028678 6.30029297 25.50219727 C5.76817709 23.63070125 5.23465566 21.75960428 4.69970703 19.88891602 C3.9315291 17.20171845 3.16839866 14.51313165 2.40625 11.82421875 C2.16563843 10.98662521 1.92502686 10.14903168 1.67712402 9.28605652 C1.45689575 8.50547379 1.23666748 7.72489105 1.00976562 6.9206543 C0.81435181 6.23448532 0.61893799 5.54831635 0.41760254 4.84135437 C0 3 0 3 0 0 Z " fill="#FFFFFF" transform="translate(620,38)"/>
<path d="M0 0 C0.33 5.94 0.66 11.88 1 18 C2.32 17.34 3.64 16.68 5 16 C12.63938194 15.14119366 18.8869597 15.13451895 25 20 C30.19920903 25.10247956 33.03067201 29.41733363 33.3125 36.8125 C33.14460313 42.76842057 32.27963764 47.44861748 28.23046875 51.98046875 C22.01306727 57.74612786 16.74380886 59.35509156 8.34765625 59.203125 C5.61063998 58.96631161 3.42431809 58.29296965 1 57 C0.505 57.495 0.505 57.495 0 58 C-3.63 58 -7.26 58 -11 58 C-11 39.52 -11 21.04 -11 2 C-5 0 -5 0 0 0 Z M0 30 C-0.18020629 32.47562082 -0.27795445 34.8969328 -0.3125 37.375 C-0.34150391 38.06078125 -0.37050781 38.7465625 -0.40039062 39.453125 C-0.45322727 43.59004275 -0.45322727 43.59004275 1.77734375 46.921875 C6.51029436 49.21764717 10.44006907 49.52978786 15.3125 47.875 C18.37469941 45.7385818 19.61351682 44.46620794 21 41 C21.70814754 36.68991684 21.54674813 33.89822908 19.25 30.125 C15.90546929 26.96627656 14.1876471 26.10796792 9.5625 25.6875 C5.51544716 26.04250464 2.89086804 27.10913196 0 30 Z " fill="#FFFFFF" transform="translate(315,21)"/>
<path d="M0 0 C0.33 10.89 0.66 21.78 1 33 C3.35125 30.36 5.7025 27.72 8.125 25 C15.94336849 16.71658037 15.94336849 16.71658037 21.1796875 15.9375 C24.5890333 15.99327662 27.6769008 16.25230268 31 17 C25.44964797 23.78376359 19.23557973 29.85522968 13 36 C14.4841373 39.48654476 16.46214052 41.64191072 19.1875 44.25 C29.82197867 54.64395735 29.82197867 54.64395735 32 59 C26.60990406 60.01993931 21.30020375 60.76106106 16 59 C9.98981035 54.76773157 5.47286801 48.75817491 1 43 C0.67 48.28 0.34 53.56 0 59 C-3.63 59 -7.26 59 -11 59 C-11 40.52 -11 22.04 -11 3 C-2 0 -2 0 0 0 Z " fill="#FFFFFF" transform="translate(778,21)"/>
<path d="M0 0 C5.89732857 6.25806941 6.46875 13.29610754 6.46875 21.55859375 C-3.43125 21.55859375 -13.33125 21.55859375 -23.53125 21.55859375 C-20.25296131 26.37234567 -20.25296131 26.37234567 -17.53125 27.55859375 C-12.67473112 27.7935866 -9.8208987 27.85661984 -5.53125 25.55859375 C-2.27836923 25.66352539 -1.26908751 26.79096505 1.21875 28.99609375 C3.46875 31.55859375 3.46875 31.55859375 3.46875 33.55859375 C-4.35497463 38.60615803 -11.30884841 39.72515051 -20.53125 38.55859375 C-26.80047615 36.86689781 -30.97957836 32.88610121 -34.53125 27.55859375 C-37.41612148 21.52658974 -37.45940713 14.77420535 -35.46875 8.43359375 C-33.18829103 3.02966255 -29.10341846 -1.0612183 -23.96875 -3.81640625 C-23.164375 -4.02265625 -22.36 -4.22890625 -21.53125 -4.44140625 C-20.644375 -4.68890625 -19.7575 -4.93640625 -18.84375 -5.19140625 C-11.97216939 -5.71001611 -5.45788691 -4.3379903 0 0 Z M-20.53125 6.55859375 C-23.26340678 9.18149449 -23.26340678 9.18149449 -24.53125 12.55859375 C-18.26125 12.55859375 -11.99125 12.55859375 -5.53125 12.55859375 C-8.29518862 7.95202938 -9.0369877 6.74810615 -13.53125 4.55859375 C-16.31808488 4.55859375 -18.0340728 5.31000515 -20.53125 6.55859375 Z " fill="#FFFFFF" transform="translate(291.53125,41.44140625)"/>
<path d="M0 0 C4.35002451 3.72404537 7.2178156 7.83610615 8.6015625 13.37109375 C8.6015625 16.34109375 8.6015625 19.31109375 8.6015625 22.37109375 C-1.2984375 22.37109375 -11.1984375 22.37109375 -21.3984375 22.37109375 C-18.77104852 27.40088964 -18.77104852 27.40088964 -14.3984375 29.37109375 C-10.08988506 29.78101676 -7.12219177 29.8535966 -3.3984375 27.37109375 C-0.0969408 27.48114364 0.88328262 28.63360568 3.3515625 30.93359375 C4.4653125 32.14015625 4.4653125 32.14015625 5.6015625 33.37109375 C4.6015625 36.37109375 4.6015625 36.37109375 2.9921875 37.5390625 C-4.52896396 41.12121675 -12.17656829 41.86305638 -20.2421875 39.55859375 C-26.64542859 36.78128436 -30.62586652 32.78266413 -33.3984375 26.37109375 C-35.25789282 19.64113328 -34.57382776 13.57230879 -31.3984375 7.37109375 C-27.80562813 1.92904426 -23.82894361 -1.25646257 -17.51953125 -3.2109375 C-11.57621436 -4.38208834 -5.08561458 -3.28998289 0 0 Z M-20.3984375 10.37109375 C-20.7284375 11.69109375 -21.0584375 13.01109375 -21.3984375 14.37109375 C-15.4584375 14.37109375 -9.5184375 14.37109375 -3.3984375 14.37109375 C-4.84826264 9.30825865 -4.84826264 9.30825865 -8.3359375 7.55859375 C-13.7642892 5.45372268 -15.95945355 6.89710631 -20.3984375 10.37109375 Z " fill="#FFFFFF" transform="translate(575.3984375,40.62890625)"/>
<path d="M0 0 C5.13678391 5.37570409 6.9295103 9.82863247 7.25 17.3125 C7.01452747 24.32795738 5.03572925 28.39415077 0.1953125 33.3359375 C-5.78382924 38.69547906 -11.32117949 39.27007895 -19.0859375 39.12109375 C-25.42721848 38.5146032 -29.41196519 36.06163956 -33.6875 31.4375 C-38.1703088 25.68781045 -39.04019443 19.9317772 -38.3125 12.8125 C-37.18228753 6.28920844 -33.66475881 2.58499514 -28.6484375 -1.5546875 C-19.60236937 -7.87785887 -8.67671937 -5.72990902 0 0 Z M-25.3125 10.8125 C-26.9199907 14.02748139 -26.78564549 17.32548258 -26.3125 20.8125 C-24.7000246 23.92227399 -23.26274501 26.0319416 -20.5625 28.25 C-16.98061977 29.14547006 -13.77473161 28.98031622 -10.3125 27.8125 C-6.97383586 24.8290129 -5.56932779 22.64341345 -4.25 18.375 C-4.33413419 13.57935096 -5.50162209 11.68695334 -8.3125 7.8125 C-10.80406187 5.83643369 -12.492205 5.78920491 -15.6875 5.375 C-20.4978299 5.95555706 -21.92642593 7.42642593 -25.3125 10.8125 Z " fill="#FFFFFF" transform="translate(721.3125,42.1875)"/>
<path d="M0 0 C4.19040401 3.1585058 7.17512196 7.42770964 8.82421875 12.375 C9.49422283 19.78897958 9.4689799 26.29063452 4.82421875 32.375 C0.47119522 36.99621929 -3.78177811 40.00126854 -10.2265625 40.7109375 C-18.22400531 40.80671526 -23.92670395 40.30088126 -29.921875 34.76171875 C-34.94267476 29.33154922 -36.6484281 24.02355387 -36.4140625 16.671875 C-35.79436598 10.69840691 -33.92594723 6.71977923 -29.55078125 2.5625 C-20.64728679 -4.53754942 -10.07388662 -5.55800641 0 0 Z M-23.17578125 12.375 C-24.78327195 15.58998139 -24.64892674 18.88798258 -24.17578125 22.375 C-22.56330585 25.48477399 -21.12602626 27.5944416 -18.42578125 29.8125 C-14.84600197 30.70744482 -11.63498101 30.54865706 -8.17578125 29.375 C-5.08793505 26.54994922 -3.52170043 24.39113759 -2.17578125 20.4375 C-2.17578125 16.37759319 -3.18168372 13.89790564 -5.17578125 10.375 C-8.03878484 7.9096358 -9.86986769 7.41949652 -13.61328125 6.875 C-18.34253976 7.53875558 -19.83259916 9.03181791 -23.17578125 12.375 Z " fill="#FFFFFF" transform="translate(407.17578125,39.625)"/>
<path d="M0 0 C3.96 0 7.92 0 12 0 C12 14.85 12 29.7 12 45 C22.23 45 32.46 45 43 45 C43 48.63 43 52.26 43 56 C28.81 56 14.62 56 0 56 C0 37.52 0 19.04 0 0 Z " fill="#FFFFFF" transform="translate(128,23)"/>
<path d="M0 0 C0 4.29 0 8.58 0 13 C3.96 13 7.92 13 12 13 C12 16.3 12 19.6 12 23 C8.04 23 4.08 23 0 23 C0.33 30.26 0.66 37.52 1 45 C4.63 45 8.26 45 12 45 C12 48.3 12 51.6 12 55 C8.83990467 56.05336511 6.4446864 56.20032888 3.125 56.25 C1.58199219 56.28867188 1.58199219 56.28867188 0.0078125 56.328125 C-4.2413346 55.86458168 -6.86115167 54.22019464 -9.75 51.125 C-12.00492278 47.29163128 -12.1244572 43.28652411 -12.09765625 38.91796875 C-12.09443359 37.98662109 -12.09121094 37.05527344 -12.08789062 36.09570312 C-12.07951172 35.13599609 -12.07113281 34.17628906 -12.0625 33.1875 C-12.05798828 32.20845703 -12.05347656 31.22941406 -12.04882812 30.22070312 C-12.03708684 27.81373889 -12.02066419 25.40690143 -12 23 C-14.64 23 -17.28 23 -20 23 C-20 19.7 -20 16.4 -20 13 C-17.36 13 -14.72 13 -12 13 C-12 9.7 -12 6.4 -12 3 C-3.375 0 -3.375 0 0 0 Z " fill="#FFFFFF" transform="translate(607,25)"/>
<path d="M0 0 C-1.8855148 4.28359673 -4.35965701 6.15103592 -8 9 C-8.845625 8.34 -9.69125 7.68 -10.5625 7 C-14.53587593 4.68821764 -16.48009183 4.34255881 -21 5 C-24.38939556 7.13679285 -25.72582557 8.1774767 -27 12 C-27.36694508 16.95375862 -27.22800966 20.10412627 -24 24 C-19.86913241 26.52441908 -16.61649909 26.07168729 -12 25 C-9.14751227 23.5578092 -9.14751227 23.5578092 -7 22 C-4.69 24.31 -2.38 26.62 0 29 C-4.4060898 33.94016129 -8.30022494 36.58211907 -14.8359375 37.3203125 C-22.47224047 37.6088378 -28.05307614 36.63857043 -33.75 31.38671875 C-38.76274313 25.95223041 -40.48071298 20.64615746 -40.234375 13.29296875 C-39.45856476 5.70295862 -36.25589108 1.451913 -30.390625 -3.36328125 C-20.15679783 -10.36977403 -9.36550993 -6.51600372 0 0 Z " fill="#FFFFFF" transform="translate(460,43)"/>
<path d="M0 0 C0 19.14 0 38.28 0 58 C-3.96 58 -7.92 58 -12 58 C-12 39.52 -12 21.04 -12 2 C-5 0 -5 0 0 0 Z " fill="#FFFFFF" transform="translate(366,21)"/>
<path d="M0 0 C0.66 0.33 1.32 0.66 2 1 C2 4.3 2 7.6 2 11 C-0.89449346 12.44724673 -3.53076258 11.87320603 -6.7109375 11.64453125 C-9.96870265 12.15042993 -10.96107422 13.44858462 -13 16 C-13.63914976 18.98687874 -13.63914976 18.98687874 -13.609375 22.296875 C-13.64160156 23.50214844 -13.67382812 24.70742188 -13.70703125 25.94921875 C-13.72830078 27.83060547 -13.72830078 27.83060547 -13.75 29.75 C-13.77964844 31.01972656 -13.80929687 32.28945312 -13.83984375 33.59765625 C-13.91053034 36.73142836 -13.95753006 39.8657185 -14 43 C-17.96 43 -21.92 43 -26 43 C-26 29.14 -26 15.28 -26 1 C-22.04 1 -18.08 1 -14 1 C-13.67 1.66 -13.34 2.32 -13 3 C-11.7315625 2.2575 -11.7315625 2.2575 -10.4375 1.5 C-6.63061178 -0.16118759 -4.10868647 -0.31605281 0 0 Z " fill="#FFFFFF" transform="translate(760,37)"/>
<path d="M0 0 C3.15075956 1.61085191 5.65689162 3.44745195 8.38671875 5.6953125 C10.45832176 7.00570997 12.54136936 8.29823093 14.63671875 9.5703125 C16.22394172 10.60604274 17.80881128 11.64544493 19.38671875 12.6953125 C15.88070519 16.58380027 11.83581818 19.22869983 7.44921875 22.0078125 C6.74603516 22.47509766 6.04285156 22.94238281 5.31835938 23.42382812 C4.63064453 23.86017578 3.94292969 24.29652344 3.234375 24.74609375 C2.61570557 25.14481689 1.99703613 25.54354004 1.35961914 25.9543457 C-1.34428643 26.96985782 -2.87314256 26.52911866 -5.61328125 25.6953125 C-8.8483784 24.12775085 -11.86583829 22.20409743 -14.92578125 20.3203125 C-15.76173828 19.8253125 -16.59769531 19.3303125 -17.45898438 18.8203125 C-18.24853516 18.33820312 -19.03808594 17.85609375 -19.8515625 17.359375 C-20.57384033 16.92061035 -21.29611816 16.4818457 -22.0402832 16.02978516 C-22.55937256 15.58940918 -23.07846191 15.1490332 -23.61328125 14.6953125 C-23.61328125 13.7053125 -23.61328125 12.7153125 -23.61328125 11.6953125 C-17.80142337 6.26545062 -8.138492 -0.68627284 0 0 Z " fill="#F386D1" transform="translate(53.61328125,7.3046875)"/>
<path d="M0 0 C2.96247594 1.46993081 5.7802206 3.19008871 8.625 4.875 C9.78902344 5.54595703 9.78902344 5.54595703 10.9765625 6.23046875 C11.7190625 6.66746094 12.4615625 7.10445312 13.2265625 7.5546875 C13.90283691 7.95155762 14.57911133 8.34842773 15.27587891 8.75732422 C17 10 17 10 19 13 C15.80864635 15.04864315 12.59462258 17.05863198 9.375 19.0625 C8.47136719 19.64322266 7.56773438 20.22394531 6.63671875 20.82226562 C-0.02357194 24.93025514 -0.02357194 24.93025514 -4.0625 25.21875 C-8.45481949 23.39640468 -12.3740905 20.99310487 -16.375 18.4375 C-17.20644531 17.91736328 -18.03789063 17.39722656 -18.89453125 16.86132812 C-20.93536363 15.58287566 -22.97007581 14.29567597 -25 13 C-21.53137421 9.29523272 -17.35228589 6.90186764 -13.0625 4.25 C-12.25103516 3.73050781 -11.43957031 3.21101563 -10.60351562 2.67578125 C-9.81783203 2.18980469 -9.03214844 1.70382813 -8.22265625 1.203125 C-7.50859619 0.75614258 -6.79453613 0.30916016 -6.05883789 -0.15136719 C-3.50575754 -1.2037219 -2.54569598 -0.99077425 0 0 Z " fill="#F285D1" transform="translate(76,44)"/>
<path d="M0 0 C3.18078696 1.62431008 6.20097204 3.51699859 9.25 5.375 C10.51070312 6.1175 10.51070312 6.1175 11.796875 6.875 C12.5909375 7.35710938 13.385 7.83921875 14.203125 8.3359375 C14.93176758 8.77470215 15.66041016 9.2134668 16.41113281 9.66552734 C16.93545898 10.10590332 17.45978516 10.5462793 18 11 C18 11.99 18 12.98 18 14 C15.39416805 16.28633358 12.33455791 17.95591141 9.375 19.75 C8.56675781 20.26949219 7.75851563 20.78898437 6.92578125 21.32421875 C3.53283505 23.40412235 1.01265752 24.94330173 -3 25.16796875 C-7.43508252 23.44128949 -11.35164637 21.08752337 -15.375 18.5625 C-16.20644531 18.05912109 -17.03789062 17.55574219 -17.89453125 17.03710938 C-22.41720461 14.2410724 -22.41720461 14.2410724 -24 13 C-24 12.34 -24 11.68 -24 11 C-20.93084847 8.67192597 -17.55317199 6.78939839 -14.25 4.8125 C-13.32960938 4.24080078 -12.40921875 3.66910156 -11.4609375 3.08007812 C-10.57148438 2.54447266 -9.68203125 2.00886719 -8.765625 1.45703125 C-7.94868164 0.96178955 -7.13173828 0.46654785 -6.29003906 -0.04370117 C-3.5757553 -1.17716061 -2.68802241 -1.09483685 0 0 Z " fill="#F285D1" transform="translate(31,44)"/>
<path d="M0 0 C5.80802389 3.12406188 11.583218 6.23376906 17.125 9.8125 C18.03507812 10.39644531 18.94515625 10.98039062 19.8828125 11.58203125 C22 13 22 13 23 14 C23.08748207 15.92667507 23.10697334 17.85651861 23.09765625 19.78515625 C23.09443359 20.95498047 23.09121094 22.12480469 23.08789062 23.33007812 C23.07951172 24.56177734 23.07113281 25.79347656 23.0625 27.0625 C23.05798828 28.29806641 23.05347656 29.53363281 23.04882812 30.80664062 C23.03699608 33.87114117 23.02051173 36.93554721 23 40 C17.19197611 36.87593812 11.416782 33.76623094 5.875 30.1875 C4.96492187 29.60355469 4.05484375 29.01960938 3.1171875 28.41796875 C1 27 1 27 0 26 C-0.08748207 24.07332493 -0.10697334 22.14348139 -0.09765625 20.21484375 C-0.09443359 19.04501953 -0.09121094 17.87519531 -0.08789062 16.66992188 C-0.07951172 15.43822266 -0.07113281 14.20652344 -0.0625 12.9375 C-0.05798828 11.70193359 -0.05347656 10.46636719 -0.04882812 9.19335938 C-0.03699608 6.12885883 -0.02051173 3.06445279 0 0 Z " fill="#703384" transform="translate(6,56)"/>
<path d="M0 0 C1.19101617 7.22517661 2.30532154 14.9202763 0 22 C-5.37010118 28.51485662 -14.11797468 32.37265823 -22 35 C-22.33 27.74 -22.66 20.48 -23 13 C-21.411875 12.154375 -19.82375 11.30875 -18.1875 10.4375 C-13.00686994 7.62208626 -8.04951224 4.5479811 -3.1171875 1.3203125 C-1 0 -1 0 0 0 Z " fill="#AF47AB" transform="translate(73,21)"/>
</svg>
